<?xml version="1.0" encoding="UTF-8" standalone="no"?>
<!-- Generator: Adobe Illustrator 18.1.0, SVG Export Plug-In . SVG Version: 6.00 Build 0)  -->

<svg
   xmlns:dc="http://purl.org/dc/elements/1.1/"
   xmlns:cc="http://creativecommons.org/ns#"
   xmlns:rdf="http://www.w3.org/1999/02/22-rdf-syntax-ns#"
   xmlns:svg="http://www.w3.org/2000/svg"
   xmlns="http://www.w3.org/2000/svg"
   xmlns:sodipodi="http://sodipodi.sourceforge.net/DTD/sodipodi-0.dtd"
   xmlns:inkscape="http://www.inkscape.org/namespaces/inkscape"
   version="1.1"
   id="Layer_1"
   x="0px"
   y="0px"
   viewBox="0 0 500 500"
   enable-background="new 0 0 500 500"
   xml:space="preserve"
   inkscape:version="0.91 r13725"
   sodipodi:docname="email-icon.svg"><metadata
     id="metadata17"><rdf:RDF><cc:Work
         rdf:about=""><dc:format>image/svg+xml</dc:format><dc:type
           rdf:resource="http://purl.org/dc/dcmitype/StillImage" /></cc:Work></rdf:RDF></metadata><defs
     id="defs15" /><sodipodi:namedview
     pagecolor="#ffffff"
     bordercolor="#666666"
     borderopacity="1"
     objecttolerance="10"
     gridtolerance="10"
     guidetolerance="10"
     inkscape:pageopacity="0"
     inkscape:pageshadow="2"
     inkscape:window-width="1056"
     inkscape:window-height="750"
     id="namedview13"
     showgrid="false"
     inkscape:zoom="0.472"
     inkscape:cx="259.5339"
     inkscape:cy="250"
     inkscape:window-x="245"
     inkscape:window-y="35"
     inkscape:window-maximized="0"
     inkscape:current-layer="Layer_1" /><g
     id="g3"
     style="fill:#444444;fill-opacity:1"><path
       fill="#010101"
       d="M498.5,81.6L326.4,232.1l173.2,183.7c0.3-1.1,0.5-2.3,0.5-3.5V87.7C499.9,85.5,499.4,83.5,498.5,81.6z"
       id="path5"
       style="fill:#444444;fill-opacity:1" /><path
       fill="#010101"
       d="M485.9,73.1c-0.3,0-0.4,0-0.6,0H14.7c-0.3,0-0.4,0-0.6,0.1L250,279.4L485.9,73.1z"
       id="path7"
       style="fill:#444444;fill-opacity:1" /><path
       fill="#010101"
       d="M254.9,294.6c-1.4,1.3-3.1,1.8-4.9,1.8s-3.4-0.6-4.9-1.8l-63.3-55.3L7.1,424.8c2.3,1.4,4.8,2.1,7.5,2.1   h470.7c2.8,0,5.4-0.9,7.5-2.1L318,239.2L254.9,294.6z"
       id="path9"
       style="fill:#444444;fill-opacity:1" /><path
       fill="#010101"
       d="M1.4,81.6c-0.9,1.9-1.4,4-1.4,6.1v324.6c0,1.3,0.3,2.4,0.5,3.5l173.2-183.7L1.4,81.6z"
       id="path11"
       style="fill:#444444;fill-opacity:1" /></g><path
     style="fill:#ff0000;fill-opacity:0"
     d="M 132.16295,174.97484 16.020819,73.305085 l 233.678741,0 233.67872,0 -5.24847,5.008223 C 463.54379,92.231681 251.33722,276.69137 249.9361,276.66976 249.03905,276.65599 196.04112,230.89321 132.16295,174.97484 Z"
     id="path4145"
     inkscape:connector-curvature="0" /><path
     style="fill:#ff0000;fill-opacity:0"
     d="M 132.16295,174.97484 16.020819,73.305085 l 233.678741,0 233.67872,0 -5.24847,5.008223 C 463.54379,92.231681 251.33722,276.69137 249.9361,276.66976 249.03905,276.65599 196.04112,230.89321 132.16295,174.97484 Z"
     id="path4147"
     inkscape:connector-curvature="0" /><path
     style="fill:#ff0000;fill-opacity:0"
     d="M 132.16295,174.97484 16.020819,73.305085 l 233.678741,0 233.67872,0 -5.24847,5.008223 C 463.54379,92.231681 251.33722,276.69137 249.9361,276.66976 249.03905,276.65599 196.04112,230.89321 132.16295,174.97484 Z"
     id="path4149"
     inkscape:connector-curvature="0" /><path
     style="fill:#ff0000;fill-opacity:0"
     d="m 1.4830508,248.40978 0,-164.819966 7.1511231,5.980517 C 32.021998,109.12967 170.97458,231.21006 170.97458,232.1987 c 0,0.90099 -142.229127,152.94569 -165.4355306,176.85261 -3.9966178,4.11727 -4.0559986,1.76545 -4.0559986,-160.64153 z"
     id="path4151"
     inkscape:connector-curvature="0" /><path
     style="fill:#ff0000;fill-opacity:0"
     d="m 1.4830508,248.40978 0,-164.819966 7.1511231,5.980517 C 32.021998,109.12967 170.97458,231.21006 170.97458,232.1987 c 0,0.90099 -142.229127,152.94569 -165.4355306,176.85261 -3.9966178,4.11727 -4.0559986,1.76545 -4.0559986,-160.64153 z"
     id="path4153"
     inkscape:connector-curvature="0" /><path
     style="fill:#ff0000;fill-opacity:0"
     d="m 1.4830508,248.40978 0,-164.819966 7.1511231,5.980517 C 32.021998,109.12967 170.97458,231.21006 170.97458,232.1987 c 0,0.90099 -142.229127,152.94569 -165.4355306,176.85261 -3.9966178,4.11727 -4.0559986,1.76545 -4.0559986,-160.64153 z"
     id="path4155"
     inkscape:connector-curvature="0" /><path
     style="fill:#ff0000;fill-opacity:0"
     d="m 1.4830508,248.40978 0,-164.819966 7.1511231,5.980517 C 32.021998,109.12967 170.97458,231.21006 170.97458,232.1987 c 0,0.90099 -142.229127,152.94569 -165.4355306,176.85261 -3.9966178,4.11727 -4.0559986,1.76545 -4.0559986,-160.64153 z"
     id="path4157"
     inkscape:connector-curvature="0" /><path
     style="fill:#ff0000;fill-opacity:0"
     d="m 1.4830508,248.40978 0,-164.819966 7.1511231,5.980517 C 32.021998,109.12967 170.97458,231.21006 170.97458,232.1987 c 0,0.90099 -142.229127,152.94569 -165.4355306,176.85261 -3.9966178,4.11727 -4.0559986,1.76545 -4.0559986,-160.64153 z"
     id="path4159"
     inkscape:connector-curvature="0" /><path
     style="fill:#ff0000;fill-opacity:0"
     d="m 1.4830508,248.40978 0,-164.819966 7.1511231,5.980517 C 32.021998,109.12967 170.97458,231.21006 170.97458,232.1987 c 0,0.90099 -142.229127,152.94569 -165.4355306,176.85261 -3.9966178,4.11727 -4.0559986,1.76545 -4.0559986,-160.64153 z"
     id="path4161"
     inkscape:connector-curvature="0" /><path
     style="fill:#ff0000;fill-opacity:0"
     d="m 1.4830508,248.40978 0,-164.819966 7.1511231,5.980517 C 32.021998,109.12967 170.97458,231.21006 170.97458,232.1987 c 0,0.90099 -142.229127,152.94569 -165.4355306,176.85261 -3.9966178,4.11727 -4.0559986,1.76545 -4.0559986,-160.64153 z"
     id="path4163"
     inkscape:connector-curvature="0" /><path
     style="fill:#ff0000;fill-opacity:0"
     d="m 1.4830508,248.40978 0,-164.819966 7.1511231,5.980517 C 32.021998,109.12967 170.97458,231.21006 170.97458,232.1987 c 0,0.90099 -142.229127,152.94569 -165.4355306,176.85261 -3.9966178,4.11727 -4.0559986,1.76545 -4.0559986,-160.64153 z"
     id="path4165"
     inkscape:connector-curvature="0" /><path
     style="fill:#ff0000;fill-opacity:0"
     d="m 1.4830508,248.40978 0,-164.819966 7.1511231,5.980517 C 32.021998,109.12967 170.97458,231.21006 170.97458,232.1987 c 0,0.90099 -142.229127,152.94569 -165.4355306,176.85261 -3.9966178,4.11727 -4.0559986,1.76545 -4.0559986,-160.64153 z"
     id="path4167"
     inkscape:connector-curvature="0" /><path
     style="fill:#ff0000;fill-opacity:0"
     d="m 1.4830508,248.40978 0,-164.819966 7.1511231,5.980517 C 32.021998,109.12967 170.97458,231.21006 170.97458,232.1987 c 0,0.90099 -142.229127,152.94569 -165.4355306,176.85261 -3.9966178,4.11727 -4.0559986,1.76545 -4.0559986,-160.64153 z"
     id="path4169"
     inkscape:connector-curvature="0" /><path
     style="fill:#ff0000;fill-opacity:0"
     d="m 1.4830508,248.40978 0,-164.819966 7.1511231,5.980517 C 32.021998,109.12967 170.97458,231.21006 170.97458,232.1987 c 0,0.90099 -142.229127,152.94569 -165.4355306,176.85261 -3.9966178,4.11727 -4.0559986,1.76545 -4.0559986,-160.64153 z"
     id="path4171"
     inkscape:connector-curvature="0" /><path
     style="fill:#ff0000;fill-opacity:0"
     d="m 1.4830508,248.40978 0,-164.819966 7.1511231,5.980517 C 32.021998,109.12967 170.97458,231.21006 170.97458,232.1987 c 0,0.90099 -142.229127,152.94569 -165.4355306,176.85261 -3.9966178,4.11727 -4.0559986,1.76545 -4.0559986,-160.64153 z"
     id="path4173"
     inkscape:connector-curvature="0" /><path
     style="fill:#ff0000;fill-opacity:0"
     d="m 1.4830508,248.40978 0,-164.819966 7.1511231,5.980517 C 32.021998,109.12967 170.97458,231.21006 170.97458,232.1987 c 0,0.90099 -142.229127,152.94569 -165.4355306,176.85261 -3.9966178,4.11727 -4.0559986,1.76545 -4.0559986,-160.64153 z"
     id="path4175"
     inkscape:connector-curvature="0" /><path
     style="fill:#ff0000;fill-opacity:0"
     d="m 1.4830508,248.40978 0,-164.819966 7.1511231,5.980517 C 32.021998,109.12967 170.97458,231.21006 170.97458,232.1987 c 0,0.90099 -142.229127,152.94569 -165.4355306,176.85261 -3.9966178,4.11727 -4.0559986,1.76545 -4.0559986,-160.64153 z"
     id="path4177"
     inkscape:connector-curvature="0" /><path
     style="fill:#ff0000;fill-opacity:0"
     d="m 1.4830508,248.40978 0,-164.819966 7.1511231,5.980517 C 32.021998,109.12967 170.97458,231.21006 170.97458,232.1987 c 0,0.90099 -142.229127,152.94569 -165.4355306,176.85261 -3.9966178,4.11727 -4.0559986,1.76545 -4.0559986,-160.64153 z"
     id="path4179"
     inkscape:connector-curvature="0" /></svg>