<?xml version="1.0" encoding="UTF-8" standalone="no"?>
<!-- Generator: Adobe Illustrator 18.1.0, SVG Export Plug-In . SVG Version: 6.00 Build 0)  -->

<svg
   xmlns:dc="http://purl.org/dc/elements/1.1/"
   xmlns:cc="http://creativecommons.org/ns#"
   xmlns:rdf="http://www.w3.org/1999/02/22-rdf-syntax-ns#"
   xmlns:svg="http://www.w3.org/2000/svg"
   xmlns="http://www.w3.org/2000/svg"
   xmlns:sodipodi="http://sodipodi.sourceforge.net/DTD/sodipodi-0.dtd"
   xmlns:inkscape="http://www.inkscape.org/namespaces/inkscape"
   version="1.1"
   id="Layer_1"
   x="0px"
   y="0px"
   viewBox="0 0 500 500"
   enable-background="new 0 0 500 500"
   xml:space="preserve"
   inkscape:version="0.91 r13725"
   sodipodi:docname="feedburner-icon.svg"><metadata
     id="metadata9"><rdf:RDF><cc:Work
         rdf:about=""><dc:format>image/svg+xml</dc:format><dc:type
           rdf:resource="http://purl.org/dc/dcmitype/StillImage" /></cc:Work></rdf:RDF></metadata><defs
     id="defs7" /><sodipodi:namedview
     pagecolor="#ffffff"
     bordercolor="#666666"
     borderopacity="1"
     objecttolerance="10"
     gridtolerance="10"
     guidetolerance="10"
     inkscape:pageopacity="0"
     inkscape:pageshadow="2"
     inkscape:window-width="1082"
     inkscape:window-height="695"
     id="namedview5"
     showgrid="false"
     inkscape:zoom="0.472"
     inkscape:cx="259.5339"
     inkscape:cy="250"
     inkscape:window-x="4"
     inkscape:window-y="23"
     inkscape:window-maximized="0"
     inkscape:current-layer="Layer_1" /><path
     d="M412.6,329.8c7.2-25.1,21.5-113.1-102.7-187.5c0,0,21,94.9-45.1,119.8c0,0-36.8,8.8-50-3.7c0,0,53.9-84.1,20.4-136.3  S200.9,47.4,214.2,0c0,0-157.9,127.8-119.3,326.8c-48,18.2-78.3,44.6-78.3,74c0,54.8,104.4,99.1,233.3,99.1s233.3-44.5,233.3-99.1  C483.3,373,456.2,347.8,412.6,329.8z M364.4,368.6c-30.1,60.6-142.1,107.9-209.4,29.1c-67.4-78.8,10.9-190.8,10.9-190.8  c0.5,9.3-15.8,27.9,0,77.2s66.9,78.3,108.9,53.3c41.9-24.9,59-101.8,59-101.8C346.8,250,394.4,308,364.4,368.6z"
     id="path3"
     style="fill:#444444;fill-opacity:1" /></svg>