<?xml version="1.0" encoding="UTF-8" standalone="no"?>
<svg
   xmlns:dc="http://purl.org/dc/elements/1.1/"
   xmlns:cc="http://creativecommons.org/ns#"
   xmlns:rdf="http://www.w3.org/1999/02/22-rdf-syntax-ns#"
   xmlns:svg="http://www.w3.org/2000/svg"
   xmlns="http://www.w3.org/2000/svg"
   xmlns:sodipodi="http://sodipodi.sourceforge.net/DTD/sodipodi-0.dtd"
   xmlns:inkscape="http://www.inkscape.org/namespaces/inkscape"
   version="1.1"
   id="svg2"
   viewBox="0 0 694.48815 141.7323"
   height="40mm"
   width="196mm"
   inkscape:version="0.91 r13725"
   sodipodi:docname="tcs_logo_path.svg">
  <sodipodi:namedview
     pagecolor="#ffffff"
     bordercolor="#666666"
     borderopacity="1"
     objecttolerance="10"
     gridtolerance="10"
     guidetolerance="10"
     inkscape:pageopacity="0"
     inkscape:pageshadow="2"
     inkscape:window-width="1414"
     inkscape:window-height="842"
     id="namedview8"
     showgrid="false"
     inkscape:zoom="0.44637188"
     inkscape:cx="237.47015"
     inkscape:cy="70.866142"
     inkscape:window-x="12"
     inkscape:window-y="5"
     inkscape:window-maximized="0"
     inkscape:current-layer="svg2" />
  <defs
     id="defs4" />
  <metadata
     id="metadata7">
    <rdf:RDF>
      <cc:Work
         rdf:about="">
        <dc:format>image/svg+xml</dc:format>
        <dc:type
           rdf:resource="http://purl.org/dc/dcmitype/StillImage" />
        <dc:title></dc:title>
      </cc:Work>
    </rdf:RDF>
  </metadata>
  <g
     transform="translate(0,-910.63001)"
     id="layer1">
    <g
       style="font-style:normal;font-weight:normal;font-size:180px;line-height:125%;font-family:sans-serif;letter-spacing:0px;word-spacing:0px;fill:#000000;fill-opacity:1;stroke:none;stroke-width:1px;stroke-linecap:butt;stroke-linejoin:miter;stroke-opacity:1"
       id="text3336">
      <path
         sodipodi:type="inkscape:offset"
         inkscape:radius="0"
         inkscape:original="M 507.35547 923.36914 C 503.32715 923.36914 499.60547 923.95866 496.1875 925.13867 C 492.76953 926.278 489.79818 927.86588 487.27539 929.90039 C 484.7933 931.93489 482.84017 934.35644 481.41602 937.16406 C 480.03255 939.93099 479.3418 942.96191 479.3418 946.25781 C 479.3418 948.69922 479.70703 951.01758 480.43945 953.21484 C 481.21257 955.4121 482.23079 957.5498 483.49219 959.625 C 484.75358 961.65951 486.17676 963.65235 487.76367 965.60547 C 489.35059 967.5586 490.97818 969.51172 492.64648 971.46484 C 494.31478 973.37728 495.94238 975.29069 497.5293 977.20312 C 499.11621 979.11556 500.54134 981.06868 501.80273 983.0625 C 503.06413 985.01563 504.06055 987.05014 504.79297 989.16602 C 505.56608 991.24122 505.95312 993.41667 505.95312 995.69531 C 505.95313 997.93327 505.56608 1000.0095 504.79297 1001.9219 C 504.01986 1003.8343 502.96191 1005.4818 501.61914 1006.8652 C 500.27637 1008.2487 498.66862 1009.3483 496.79688 1010.1621 C 494.92513 1010.9352 492.89063 1011.3203 490.69336 1011.3203 C 487.07194 1011.3203 484.18392 1010.2624 482.02734 1008.1465 C 479.91146 1005.99 478.85352 1003.0821 478.85352 999.41992 C 478.85352 997.4668 479.17904 995.71614 479.83008 994.16992 C 480.52181 992.583 481.47657 991.2412 482.69727 990.14258 C 483.91797 989.04394 485.40462 988.18848 487.1543 987.57812 C 488.90397 986.96777 490.87695 986.66211 493.07422 986.66211 C 492.58594 984.09864 491.34538 982.08594 489.35156 980.62109 C 487.35774 979.15625 484.89453 978.42383 481.96484 978.42383 C 479.56413 978.42383 477.30729 978.93197 475.19141 979.94922 C 473.07552 980.96647 471.24349 982.36979 469.69727 984.16016 C 468.15104 985.90983 466.93034 987.986 466.03516 990.38672 C 465.13997 992.78743 464.69336 995.36979 464.69336 998.13672 C 464.69336 1001.4326 465.32259 1004.4238 466.58398 1007.1094 C 467.84538 1009.7949 469.61588 1012.1152 471.89453 1014.0684 C 474.21387 1015.9808 476.9808 1017.4456 480.19531 1018.4629 C 483.45053 1019.5208 487.07292 1020.0488 491.06055 1020.0488 C 495.82129 1020.0488 500.23567 1019.3164 504.30469 1017.8516 C 508.41439 1016.4274 511.97526 1014.4544 514.98633 1011.9316 C 518.03809 1009.3682 520.41797 1006.3571 522.12695 1002.8984 C 523.83593 999.39908 524.68945 995.59407 524.68945 991.48438 C 524.68945 987.61881 524.01855 984.09961 522.67578 980.92578 C 521.33301 977.71126 519.64388 974.73991 517.60938 972.01367 C 515.57488 969.24675 513.3776 966.66439 511.01758 964.26367 C 508.65755 961.82227 506.46029 959.42057 504.42578 957.06055 C 502.39127 954.70052 500.7041 952.30078 499.36133 949.85938 C 498.01855 947.41797 497.3457 944.8138 497.3457 942.04688 C 497.3457 940.21582 497.61165 938.5267 498.14062 936.98047 C 498.71029 935.43425 499.48242 934.11231 500.45898 933.01367 C 501.47623 931.87435 502.67708 930.99903 504.06055 930.38867 C 505.4847 929.73763 507.03093 929.41211 508.69922 929.41211 C 511.46615 929.41211 513.64356 930.20606 515.23047 931.79297 C 516.81738 933.33919 517.60938 935.45508 517.60938 938.14062 C 517.60938 940.29721 517.1429 942.33171 516.20703 944.24414 C 515.27116 946.11589 514.02865 947.62045 512.48242 948.75977 C 513.4183 950.02116 514.5179 950.99772 515.7793 951.68945 C 517.08138 952.34049 518.52636 952.66602 520.11328 952.66602 C 521.49674 952.66602 522.77702 952.38216 523.95703 951.8125 C 525.13704 951.24284 526.13542 950.44889 526.94922 949.43164 C 527.76303 948.37369 528.39226 947.13314 528.83984 945.70898 C 529.32812 944.24414 529.57227 942.6364 529.57227 940.88672 C 529.57227 938.24187 529.04427 935.84017 527.98633 933.68359 C 526.92839 931.52701 525.42188 929.69694 523.46875 928.19141 C 521.55632 926.64519 519.23796 925.4642 516.51172 924.65039 C 513.78549 923.7959 510.73275 923.36914 507.35547 923.36914 z M 250.64258 924.04102 C 246.53288 924.04102 242.76953 924.6722 239.35156 925.93359 C 235.93359 927.1543 232.81933 928.84147 230.01172 930.99805 C 227.2041 933.15462 224.68131 935.69922 222.44336 938.62891 C 220.20541 941.5586 218.23242 944.71062 216.52344 948.08789 C 214.81445 951.42448 213.34961 954.90398 212.12891 958.52539 C 210.94889 962.14681 209.97233 965.74739 209.19922 969.32812 C 208.42611 972.90885 207.85644 976.38834 207.49023 979.76562 C 207.16471 983.10221 207.00195 986.19466 207.00195 989.04297 C 207.00195 994.6582 207.55176 999.41995 208.65039 1003.3262 C 209.78972 1007.2324 211.47884 1010.4063 213.7168 1012.8477 C 215.99544 1015.2891 218.84375 1017.0576 222.26172 1018.1562 C 225.67969 1019.2548 229.70704 1019.8047 234.3457 1019.8047 C 237.2347 1019.8047 240.38867 1019.3779 243.80664 1018.5234 C 247.2653 1017.669 250.6416 1016.3252 253.9375 1014.4941 C 257.27409 1012.6224 260.36654 1010.2227 263.21484 1007.293 C 264.12335 1006.3455 264.86975 1005.2298 265.6582 1004.1582 C 265.90694 1005.4248 266.19951 1006.6461 266.63281 1007.7207 C 267.60938 1010.2028 268.97298 1012.2373 270.72266 1013.8242 C 272.51302 1015.3704 274.62891 1016.5097 277.07031 1017.2422 C 279.55241 1017.9339 282.23796 1018.2793 285.12695 1018.2793 C 288.95183 1018.2793 292.57422 1017.404 295.99219 1015.6543 C 299.41016 1013.9046 302.44108 1011.4017 305.08594 1008.1465 C 307.7308 1004.8913 309.90821 1000.9453 311.61719 996.30664 C 313.36686 991.66797 314.48437 986.45963 314.97266 980.68164 C 318.29653 980.12276 321.36161 979.20376 324.30273 978.11328 C 324.11186 978.59763 323.81855 979.03066 323.64062 979.52148 C 322.46061 982.77669 321.58529 986.0319 321.01562 989.28711 C 320.44596 992.54232 320.16211 995.59505 320.16211 998.44336 C 320.16211 1002.1461 320.62858 1005.2783 321.56445 1007.8418 C 322.50033 1010.4053 323.74284 1012.4815 325.28906 1014.0684 C 326.83528 1015.6553 328.60384 1016.7946 330.59766 1017.4863 C 332.59147 1018.1781 334.66765 1018.5234 336.82422 1018.5234 C 339.02149 1018.5234 341.05599 1018.1979 342.92773 1017.5469 C 344.79947 1016.8551 346.4886 1015.9798 347.99414 1014.9219 C 349.54036 1013.8233 350.90202 1012.6026 352.08203 1011.2598 C 353.30274 1009.8763 354.38249 1008.473 355.31836 1007.0488 C 355.80665 1010.5888 357.10873 1013.2744 359.22461 1015.1055 C 361.3405 1016.8959 364.12728 1017.791 367.58594 1017.791 C 368.68457 1017.791 369.90527 1017.7097 371.24805 1017.5469 C 372.59082 1017.3841 373.99414 1017.0388 375.45898 1016.5098 C 376.92382 1015.9808 378.43034 1015.2266 379.97656 1014.25 C 381.52278 1013.2328 383.02734 1011.9109 384.49219 1010.2832 C 385.32464 1009.3608 386.09354 1008.0338 386.88867 1006.875 C 386.97938 1007.1614 387.01541 1007.5069 387.11719 1007.7812 C 388.05306 1010.2634 389.35514 1012.2979 391.02344 1013.8848 C 392.73242 1015.4717 394.76693 1016.6507 397.12695 1017.4238 C 399.52767 1018.1562 402.19336 1018.5234 405.12305 1018.5234 C 407.64583 1018.5234 410.06543 1018.2376 412.38477 1017.668 C 414.70411 1017.0983 416.81999 1016.1019 418.73242 1014.6777 C 420.64486 1013.2535 422.29427 1011.362 423.67773 1009.002 C 425.06119 1006.642 426.07747 1003.6508 426.72852 1000.0293 C 425.75195 1000.9245 424.65429 1001.78 423.43359 1002.5938 C 422.21289 1003.3669 420.95052 1004.0576 419.64844 1004.668 C 418.38704 1005.2783 417.08496 1005.7665 415.74219 1006.1328 C 414.4401 1006.499 413.17968 1006.6816 411.95898 1006.6816 C 410.86035 1006.6816 409.84212 1006.5189 408.90625 1006.1934 C 407.97038 1005.8678 407.15658 1005.32 406.46484 1004.5469 C 405.77312 1003.7331 405.22331 1002.6533 404.81641 1001.3105 C 404.4095 999.96776 404.20703 998.30045 404.20703 996.30664 C 404.20703 995.73697 404.22691 995.14746 404.26758 994.53711 C 404.34896 993.88606 404.43034 993.21321 404.51172 992.52148 C 408.25521 992.27734 411.85579 991.44368 415.31445 990.01953 C 418.77311 988.59537 421.82584 986.72363 424.4707 984.4043 C 427.15625 982.08496 429.29199 979.37956 430.87891 976.28711 C 432.46582 973.15397 433.25977 969.77572 433.25977 966.1543 C 433.25977 964.60807 433.05534 963.12337 432.64844 961.69922 C 432.28222 960.23438 431.57161 958.95215 430.51367 957.85352 C 429.49642 956.75488 428.09115 955.88151 426.30078 955.23047 C 424.55111 954.53874 422.27246 954.19141 419.46484 954.19141 C 415.19238 954.19141 411.38932 954.9655 408.05273 956.51172 C 404.71615 958.01726 401.80632 960.0319 399.32422 962.55469 C 396.84213 965.03678 394.72624 967.86328 392.97656 971.03711 C 391.22688 974.21094 389.82357 977.44629 388.76562 980.74219 C 387.70769 984.03809 386.9336 987.25358 386.44531 990.38672 C 385.95703 993.51985 385.71289 996.28678 385.71289 998.6875 C 385.71289 999.03829 385.77401 999.32326 385.7832 999.66406 C 385.7569 999.72087 385.73947 999.78923 385.71289 999.8457 C 385.06185 1001.1885 384.30957 1002.3496 383.45508 1003.3262 C 382.64128 1004.3028 381.70443 1005.0749 380.64648 1005.6445 C 379.62923 1006.1735 378.51172 1006.4375 377.29102 1006.4375 C 375.54134 1006.4375 374.23926 1006.1119 373.38477 1005.4609 C 372.57097 1004.7692 372.16406 1003.5485 372.16406 1001.7988 C 372.16406 1001.1478 372.20378 1000.4967 372.28516 999.8457 C 372.36654 999.15397 372.50944 998.46322 372.71289 997.77148 L 387.05664 930.26562 L 368.5625 932.76953 L 362.45898 961.51562 L 362.45898 961.02734 C 362.45898 959.23698 361.64518 957.73243 360.01758 956.51172 C 358.43066 955.29102 355.86621 954.67969 352.32617 954.67969 C 348.70475 954.67969 345.38997 955.37239 342.37891 956.75586 C 339.36784 958.09863 336.66049 959.92871 334.25977 962.24805 C 331.89975 964.52669 329.82552 967.17253 328.03516 970.18359 C 327.74645 970.67372 327.58374 971.22673 327.31055 971.72461 C 327.0596 971.83135 326.82304 971.97388 326.57031 972.07617 C 324.86133 972.76791 323.15235 973.33757 321.44336 973.78516 C 319.77507 974.19206 318.20898 974.39453 316.74414 974.39453 L 315.94922 974.39453 C 315.78646 974.39453 315.60384 974.35482 315.40039 974.27344 L 315.40039 974.15039 C 315.40039 960.84473 310.04915 954.19141 299.34766 954.19141 C 295.07519 954.19141 291.27213 954.9655 287.93555 956.51172 C 284.59896 958.01726 281.64746 960.01009 279.08398 962.49219 C 276.5612 964.97428 274.40559 967.80273 272.61523 970.97656 C 270.86556 974.1097 269.42058 977.32519 268.28125 980.62109 C 267.18262 983.91699 266.38867 987.13053 265.90039 990.26367 C 265.45083 992.89188 265.29405 995.16039 265.22656 997.31836 C 262.66934 1000.2229 259.81681 1002.7147 256.44141 1004.4844 C 252.25033 1006.6816 247.69303 1007.7812 242.76953 1007.7812 C 239.71777 1007.7812 237.21485 1007.3128 235.26172 1006.377 C 233.34929 1005.4004 231.82292 1004.0586 230.68359 1002.3496 C 229.58497 1000.6406 228.81283 998.60612 228.36523 996.24609 C 227.95833 993.84538 227.75391 991.19955 227.75391 988.31055 C 227.75391 984.07877 228.07943 979.68424 228.73047 975.12695 C 229.38151 970.56966 230.27669 966.13542 231.41602 961.82227 C 232.55534 957.50912 233.91895 953.41829 235.50586 949.55273 C 237.13347 945.68717 238.90397 942.31088 240.81641 939.42188 C 242.76953 936.49219 244.8239 934.17188 246.98047 932.46289 C 249.17774 930.75391 251.43653 929.90039 253.75586 929.90039 C 255.13933 929.90039 256.31836 930.12468 257.29492 930.57227 C 258.27149 930.97917 259.06543 931.52702 259.67578 932.21875 C 260.28613 932.91048 260.71289 933.72428 260.95703 934.66016 C 261.24186 935.59603 261.38477 936.55274 261.38477 937.5293 C 261.38477 938.75 261.222 939.97071 260.89648 941.19141 C 260.57096 942.41211 260.14421 943.55144 259.61523 944.60938 C 259.08626 945.62663 258.47494 946.54167 257.7832 947.35547 C 257.09148 948.12858 256.37891 948.69824 255.64648 949.06445 C 256.8265 950.48861 258.0472 951.38379 259.30859 951.75 C 260.61068 952.11621 261.75 952.30078 262.72656 952.30078 C 264.31348 952.30078 265.65723 952.01497 266.75586 951.44531 C 267.89519 950.87565 268.81023 950.0817 269.50195 949.06445 C 270.23438 948.00651 270.74252 946.7858 271.02734 945.40234 C 271.35286 943.97819 271.51562 942.43197 271.51562 940.76367 C 271.51563 937.7933 270.96777 935.25065 269.86914 933.13477 C 268.81119 931.01888 267.32454 929.29004 265.41211 927.94727 C 263.54036 926.60449 261.32324 925.62793 258.75977 925.01758 C 256.23698 924.36654 253.53158 924.04102 250.64258 924.04102 z M 55.025391 924.16211 C 47.294271 924.16211 40.64095 925.0791 35.066406 926.91016 C 29.532552 928.74122 24.975261 931.16081 21.394531 934.17188 C 17.854492 937.18294 15.230468 940.66243 13.521484 944.60938 C 11.85319 948.51562 11.017578 952.54492 11.017578 956.69531 C 11.017578 958.93327 11.303385 960.82487 11.873047 962.37109 C 12.483398 963.91732 13.336914 965.15788 14.435547 966.09375 C 15.57487 967.02962 16.980143 967.72233 18.648438 968.16992 C 20.316732 968.57682 22.22819 968.7793 24.384766 968.7793 C 24.384766 968.53516 24.283529 968.2513 24.080078 967.92578 C 23.917317 967.60026 23.734701 967.15169 23.53125 966.58203 C 23.3278 965.97168 23.123373 965.17774 22.919922 964.20117 C 22.757161 963.18393 22.675781 961.88184 22.675781 960.29492 C 22.675781 955.37142 23.326823 951.30241 24.628906 948.08789 C 25.93099 944.83268 27.701497 942.25032 29.939453 940.33789 C 32.218099 938.42546 34.88379 937.06185 37.935547 936.24805 C 40.987305 935.43425 44.262369 934.94596 47.761719 934.7832 L 29.939453 1017.791 L 47.882812 1017.791 L 65.523438 935.94336 C 68.453125 936.39095 71.301432 936.79785 74.068359 937.16406 C 76.835286 937.53028 79.499023 937.81413 82.0625 938.01758 L 64.912109 1017.791 L 82.917969 1017.791 C 84.423502 1009.4495 85.806966 1001.9427 87.068359 995.26953 C 88.329753 988.59635 89.488932 982.47102 90.546875 976.89648 C 91.035156 975.43164 91.584961 974.04817 92.195312 972.74609 C 92.846354 971.44401 93.558919 970.30468 94.332031 969.32812 C 95.145833 968.35156 96.019206 967.57943 96.955078 967.00977 C 97.890951 966.44011 98.909177 966.1543 100.00781 966.1543 C 103.01888 966.1543 104.52344 968.29199 104.52344 972.56445 C 104.52344 974.55827 104.21973 976.93815 103.60938 979.70508 C 103.03972 982.472 102.40853 985.34017 101.7168 988.31055 C 101.02506 991.28093 100.37402 994.19076 99.763672 997.03906 C 99.19401 999.84665 98.908203 1002.3079 98.908203 1004.4238 C 98.908203 1006.2142 99.152344 1007.9648 99.640625 1009.6738 C 100.1696 1011.3421 101.0052 1012.8467 102.14453 1014.1895 C 103.32454 1015.4915 104.84896 1016.5495 106.7207 1017.3633 C 108.59245 1018.1364 110.91276 1018.5234 113.67969 1018.5234 C 115.30729 1018.5234 117.09766 1018.2793 119.05078 1017.791 C 121.0446 1017.3027 123.05925 1016.2646 125.09375 1014.6777 C 127.16097 1013.0564 129.20754 1010.7241 131.23438 1007.6895 C 131.24458 1007.7174 131.2475 1007.7534 131.25781 1007.7812 C 132.19368 1010.2634 133.49576 1012.2979 135.16406 1013.8848 C 136.87304 1015.4717 138.90755 1016.6507 141.26758 1017.4238 C 143.6683 1018.1562 146.33399 1018.5234 149.26367 1018.5234 C 151.78646 1018.5234 154.20606 1018.2376 156.52539 1017.668 C 158.84472 1017.0983 160.96061 1016.1019 162.87305 1014.6777 C 164.78548 1013.2535 166.4349 1011.362 167.81836 1009.002 C 169.20183 1006.642 170.2181 1003.6508 170.86914 1000.0293 C 169.89258 1000.9245 168.79493 1001.7799 167.57422 1002.5938 C 166.35352 1003.3669 165.09115 1004.0576 163.78906 1004.668 C 162.52767 1005.2783 161.22559 1005.7665 159.88281 1006.1328 C 158.58073 1006.499 157.32032 1006.6816 156.09961 1006.6816 C 155.00098 1006.6816 153.98274 1006.5189 153.04688 1006.1934 C 152.111 1005.8678 151.2972 1005.32 150.60547 1004.5469 C 149.91374 1003.7331 149.36393 1002.6533 148.95703 1001.3105 C 148.55013 999.96776 148.34766 998.30045 148.34766 996.30664 C 148.34766 995.73697 148.36754 995.14746 148.4082 994.53711 C 148.48958 993.88606 148.57096 993.21321 148.65234 992.52148 C 152.39584 992.27734 155.99642 991.44368 159.45508 990.01953 C 162.91374 988.59537 165.96647 986.72363 168.61133 984.4043 C 171.29687 982.08496 173.43262 979.37956 175.01953 976.28711 C 176.60644 973.15397 177.40039 969.77572 177.40039 966.1543 C 177.40039 964.60807 177.19596 963.12337 176.78906 961.69922 C 176.42286 960.23438 175.71224 958.95215 174.6543 957.85352 C 173.63704 956.75488 172.23177 955.88151 170.44141 955.23047 C 168.69173 954.53874 166.41308 954.19141 163.60547 954.19141 C 159.33301 954.19141 155.52995 954.9655 152.19336 956.51172 C 148.85677 958.01726 145.94694 960.0319 143.46484 962.55469 C 140.98274 965.03678 138.86686 967.86328 137.11719 971.03711 C 135.36751 974.21094 133.9642 977.44629 132.90625 980.74219 C 131.84831 984.03809 131.07422 987.25358 130.58594 990.38672 C 130.09766 993.51985 129.85352 996.28678 129.85352 998.6875 C 129.85352 998.93793 129.89766 999.13943 129.90234 999.38477 C 129.8228 999.54821 129.75001 999.74803 129.66992 999.9082 C 129.01888 1001.251 128.28646 1002.4101 127.47266 1003.3867 C 126.65885 1004.3633 125.74382 1005.1155 124.72656 1005.6445 C 123.70931 1006.1735 122.53027 1006.4375 121.1875 1006.4375 C 119.23438 1006.4375 117.91048 1005.9492 117.21875 1004.9727 C 116.52702 1003.9961 116.18164 1002.7357 116.18164 1001.1895 C 116.18164 1000.0094 116.32454 998.64584 116.60938 997.09961 C 116.93489 995.5127 117.30013 993.80371 117.70703 991.97266 C 118.15462 990.1416 118.64291 988.23014 119.17188 986.23633 C 119.70085 984.24251 120.16927 982.24772 120.57617 980.25391 C 121.02377 978.2194 121.39095 976.24642 121.67578 974.33398 C 122.0013 972.38086 122.16406 970.57064 122.16406 968.90234 C 122.16406 966.42025 121.81673 964.28255 121.125 962.49219 C 120.43327 960.70182 119.45671 959.23698 118.19531 958.09766 C 116.97461 956.95833 115.50977 956.12467 113.80078 955.5957 C 112.13249 955.06673 110.30241 954.80273 108.30859 954.80273 C 107.29134 954.80273 106.19173 954.90397 105.01172 955.10742 C 103.87239 955.27018 102.65169 955.61556 101.34961 956.14453 C 100.08822 956.63282 98.786133 957.36524 97.443359 958.3418 C 96.100586 959.27767 94.75879 960.52019 93.416016 962.06641 C 94.351888 957.30567 95.185547 953.19499 95.917969 949.73633 C 96.691081 946.27767 97.383789 943.30827 97.994141 940.82617 C 98.645183 938.34407 99.214844 936.2679 99.703125 934.59961 C 100.19141 932.93132 100.65788 931.50814 101.10547 930.32812 C 101.59375 929.10743 102.06217 928.04948 102.50977 927.1543 C 102.95735 926.25912 103.42578 925.34212 103.91406 924.40625 C 102.16438 925.58626 99.96712 926.38021 97.322266 926.78711 C 94.677409 927.19402 91.829101 927.39844 88.777344 927.39844 C 85.603515 927.39844 82.328451 927.23568 78.951172 926.91016 C 75.573893 926.54395 72.338541 926.17676 69.246094 925.81055 C 66.194336 925.40365 63.407552 925.03841 60.884766 924.71289 C 58.361979 924.34668 56.408854 924.16211 55.025391 924.16211 z M 615.63281 928.67969 C 614.24935 928.67969 612.94726 928.94368 611.72656 929.47266 C 610.54655 930.00163 609.50847 930.73405 608.61328 931.66992 C 607.7181 932.5651 607.00554 933.62305 606.47656 934.84375 C 605.98828 936.02376 605.74414 937.30599 605.74414 938.68945 C 605.74414 940.07291 605.98828 941.375 606.47656 942.5957 C 607.00554 943.77572 607.7181 944.8138 608.61328 945.70898 C 609.50847 946.56348 610.54655 947.25423 611.72656 947.7832 C 612.94726 948.27148 614.24935 948.51562 615.63281 948.51562 C 617.01627 948.51562 618.2985 948.27148 619.47852 947.7832 C 620.69922 947.25423 621.75716 946.56348 622.65234 945.70898 C 623.58822 944.8138 624.32064 943.77572 624.84961 942.5957 C 625.37858 941.375 625.64258 940.07291 625.64258 938.68945 C 625.64258 937.30599 625.37858 936.02376 624.84961 934.84375 C 624.32064 933.62305 623.58822 932.5651 622.65234 931.66992 C 621.75716 930.73405 620.69922 930.00163 619.47852 929.47266 C 618.2985 928.94368 617.01627 928.67969 615.63281 928.67969 z M 563.63086 930.26562 L 545.13672 932.76953 L 527.00977 1017.791 L 545.01562 1017.791 L 553.49805 977.69141 C 553.98633 976.10449 554.55599 974.61784 555.20703 973.23438 C 555.85807 971.81022 556.59049 970.58952 557.4043 969.57227 C 558.2181 968.51432 559.11328 967.68066 560.08984 967.07031 C 561.06641 966.45996 562.12435 966.1543 563.26367 966.1543 C 566.27474 966.1543 567.78125 968.29199 567.78125 972.56445 C 567.78125 974.55827 567.47558 976.93815 566.86523 979.70508 C 566.29557 982.472 565.66438 985.34017 564.97266 988.31055 C 564.28092 991.28093 563.62988 994.19076 563.01953 997.03906 C 562.44987 999.84665 562.16602 1002.3079 562.16602 1004.4238 C 562.16602 1006.2142 562.41016 1007.9648 562.89844 1009.6738 C 563.42741 1011.3421 564.26107 1012.8467 565.40039 1014.1895 C 566.53972 1015.4915 568.04623 1016.5495 569.91797 1017.3633 C 571.78972 1018.1364 574.10807 1018.5234 576.875 1018.5234 C 578.54329 1018.5234 580.35351 1018.2793 582.30664 1017.791 C 584.30045 1017.3027 586.3151 1016.2646 588.34961 1014.6777 C 590.34565 1013.1122 592.3019 1010.8499 594.22266 1007.9668 C 594.38623 1008.7987 594.55492 1009.6256 594.82031 1010.3438 C 595.51204 1012.2155 596.44694 1013.7617 597.62695 1014.9824 C 598.84766 1016.2031 600.27278 1017.0983 601.90039 1017.668 C 603.52799 1018.2376 605.27669 1018.5234 607.14844 1018.5234 C 608.24707 1018.5234 609.48763 1018.4222 610.87109 1018.2188 C 612.29525 1018.0153 613.7819 1017.6283 615.32812 1017.0586 C 616.87435 1016.489 618.46029 1015.6752 620.08789 1014.6172 C 621.75618 1013.5593 623.36393 1012.1757 624.91016 1010.4668 C 624.97327 1010.3988 625.02698 1010.286 625.08984 1010.2168 L 616.85352 1049.041 L 635.71289 1044.5234 L 642.18359 1014.0684 C 642.5498 1014.638 642.99642 1015.2077 643.52539 1015.7773 C 644.09505 1016.3063 644.78776 1016.7728 645.60156 1017.1797 C 646.45606 1017.5866 647.47234 1017.9121 648.65234 1018.1562 C 649.83236 1018.4004 651.21581 1018.5234 652.80273 1018.5234 C 656.83105 1018.5234 660.39193 1017.8307 663.48438 1016.4473 C 666.61751 1015.0231 669.32292 1013.1514 671.60156 1010.832 C 673.88021 1008.5127 675.77181 1005.849 677.27734 1002.8379 C 678.82357 999.7861 680.06608 996.63216 681.00195 993.37695 C 681.93783 990.08105 682.58887 986.80599 682.95508 983.55078 C 683.36198 980.25488 683.56445 977.20214 683.56445 974.39453 C 683.56445 970.69173 683.15755 967.57943 682.34375 965.05664 C 681.57064 962.53385 680.49284 960.51921 679.10938 959.01367 C 677.7666 957.46745 676.15886 956.36979 674.28711 955.71875 C 672.41536 955.02702 670.42252 954.67969 668.30664 954.67969 C 665.13281 954.67969 662.36589 955.18978 660.00586 956.20703 C 657.64583 957.22428 655.5498 958.50456 653.71875 960.05078 L 655.73242 950.65234 L 637.72656 950.65234 L 628.23633 995.39062 L 628.14453 995.39062 C 627.65625 996.97754 627.02507 998.46224 626.25195 999.8457 C 625.47884 1001.1885 624.60547 1002.3496 623.62891 1003.3262 C 622.65235 1004.3028 621.57259 1005.0749 620.39258 1005.6445 C 619.25325 1006.1735 618.07422 1006.4375 616.85352 1006.4375 C 615.10384 1006.4375 613.82162 1006.1119 613.00781 1005.4609 C 612.19401 1004.7692 611.78711 1003.5485 611.78711 1001.7988 C 611.78711 1001.1478 611.80699 1000.4967 611.84766 999.8457 C 611.92904 999.15397 612.07194 998.46322 612.27539 997.77148 L 621.24805 955.29102 L 603.24219 955.29102 L 594.75781 995.39062 C 594.72584 995.54648 594.71595 995.67423 594.68555 995.82812 C 594.09401 997.27671 593.49191 998.65876 592.86719 999.9082 C 592.21615 1001.251 591.48372 1002.4101 590.66992 1003.3867 C 589.85612 1004.3633 588.93913 1005.1155 587.92188 1005.6445 C 586.90463 1006.1735 585.72559 1006.4375 584.38281 1006.4375 C 582.47037 1006.4375 581.14844 1005.9492 580.41602 1004.9727 C 579.72428 1003.9961 579.37695 1002.7357 579.37695 1001.1895 C 579.37695 1000.0094 579.51985 998.64584 579.80469 997.09961 C 580.13021 995.5127 580.51725 993.80371 580.96484 991.97266 C 581.41243 990.1416 581.88085 988.23014 582.36914 986.23633 C 582.89811 984.24251 583.38639 982.24772 583.83398 980.25391 C 584.28158 978.2194 584.64681 976.24642 584.93164 974.33398 C 585.25716 972.38086 585.41992 970.57064 585.41992 968.90234 C 585.41992 966.42025 585.07454 964.28255 584.38281 962.49219 C 583.69108 960.70182 582.71452 959.23698 581.45312 958.09766 C 580.23242 956.95833 578.76757 956.12467 577.05859 955.5957 C 575.34961 955.06673 573.49772 954.80273 571.50391 954.80273 C 570.52734 954.80273 569.4694 954.88411 568.33008 955.04688 C 567.23144 955.20963 566.05241 955.53516 564.79102 956.02344 C 563.52962 956.51172 562.22754 957.22429 560.88477 958.16016 C 559.58269 959.05534 558.2588 960.25423 556.91602 961.75977 L 563.63086 930.26562 z M 164.64453 960.7832 C 165.82454 960.7832 166.63835 961.25163 167.08594 962.1875 C 167.53353 963.12337 167.75586 964.36393 167.75586 965.91016 C 167.75586 968.51432 167.24772 971.03711 166.23047 973.47852 C 165.25391 975.91992 163.91211 978.09733 162.20312 980.00977 C 160.53483 981.88151 158.60156 983.42774 156.4043 984.64844 C 154.20703 985.82845 151.90853 986.45964 149.50781 986.54102 C 150.15885 983.57064 151.01237 980.55957 152.07031 977.50781 C 153.16895 974.45605 154.36979 971.68912 155.67188 969.20703 C 157.01465 966.72493 158.43783 964.71028 159.94336 963.16406 C 161.48958 961.57715 163.05761 960.7832 164.64453 960.7832 z M 420.50391 960.7832 C 421.68392 960.7832 422.49772 961.25163 422.94531 962.1875 C 423.3929 963.12337 423.61523 964.36393 423.61523 965.91016 C 423.61523 968.51432 423.1071 971.03711 422.08984 973.47852 C 421.11328 975.91992 419.77149 978.09733 418.0625 980.00977 C 416.39421 981.88151 414.46094 983.42774 412.26367 984.64844 C 410.06641 985.82845 407.76791 986.45964 405.36719 986.54102 C 406.01823 983.57064 406.87174 980.55957 407.92969 977.50781 C 409.02832 974.45605 410.22917 971.68912 411.53125 969.20703 C 412.87402 966.72493 414.2972 964.71028 415.80273 963.16406 C 417.34896 961.57715 418.91699 960.7832 420.50391 960.7832 z M 300.38672 961.75977 C 301.24121 961.75977 301.93196 961.88281 302.46094 962.12695 C 303.0306 962.37109 303.49902 962.79785 303.86523 963.4082 C 304.23144 963.97786 304.5153 964.73014 304.71875 965.66602 C 304.9222 966.5612 305.0651 967.68066 305.14648 969.02344 C 303.96647 969.55241 303.00977 970.38607 302.27734 971.52539 C 301.58562 972.62402 301.24023 974.04915 301.24023 975.79883 C 301.24023 977.06022 301.46452 978.17968 301.91211 979.15625 C 302.40039 980.09212 303.29557 980.72135 304.59766 981.04688 C 304.10938 984.70898 303.3571 988.12695 302.33984 991.30078 C 301.36328 994.47461 300.22395 997.22168 298.92188 999.54102 C 297.61979 1001.8604 296.19466 1003.6924 294.64844 1005.0352 C 293.1429 1006.378 291.63835 1007.0488 290.13281 1007.0488 C 288.9528 1007.0488 287.95443 1006.906 287.14062 1006.6211 C 286.32683 1006.3363 285.65593 1005.8281 285.12695 1005.0957 C 284.63867 1004.3226 284.27344 1003.2845 284.0293 1001.9824 C 283.82585 1000.6803 283.72266 998.99118 283.72266 996.91602 C 283.72266 994.84082 283.92708 992.54232 284.33398 990.01953 C 284.74088 987.45605 285.31055 984.87174 286.04297 982.26758 C 286.77539 979.66341 287.65072 977.14063 288.66797 974.69922 C 289.72592 972.21713 290.86524 970.01986 292.08594 968.10742 C 293.34733 966.19499 294.66927 964.67057 296.05273 963.53125 C 297.43619 962.35124 298.88119 961.75977 300.38672 961.75977 z M 356.17188 962.43164 C 357.14844 962.43164 357.94238 962.5944 358.55273 962.91992 C 359.20377 963.20475 359.71191 963.5918 360.07812 964.08008 C 360.44433 964.52767 360.70833 964.9961 360.87109 965.48438 C 361.07455 965.97265 361.21745 966.39941 361.29883 966.76562 L 355.19531 995.39062 L 355.19531 996.0625 C 354.78841 997.81217 354.17903 999.33854 353.36523 1000.6406 C 352.59212 1001.9427 351.71679 1003.0205 350.74023 1003.875 C 349.80436 1004.7295 348.80795 1005.3805 347.75 1005.8281 C 346.73275 1006.235 345.7959 1006.4375 344.94141 1006.4375 C 344.37175 1006.4375 343.72071 1006.3779 342.98828 1006.2559 C 342.25586 1006.1338 341.5651 1005.7666 340.91406 1005.1562 C 340.30371 1004.5052 339.77377 1003.5286 339.32617 1002.2266 C 338.87859 1000.9245 338.6543 999.0726 338.6543 996.67188 C 338.6543 994.71875 338.83887 992.52148 339.20508 990.08008 C 339.57129 987.59798 340.09928 985.09701 340.79102 982.57422 C 341.52344 980.01074 342.39876 977.52767 343.41602 975.12695 C 344.43327 972.72623 345.59245 970.59049 346.89453 968.71875 C 348.19662 966.80631 349.62175 965.27994 351.16797 964.14062 C 352.75488 963.0013 354.42219 962.43164 356.17188 962.43164 z M 660.1875 963.65234 C 660.75716 963.65234 661.40821 963.75358 662.14062 963.95703 C 662.87305 964.11979 663.5459 964.5485 664.15625 965.24023 C 664.8073 965.93197 665.35515 966.9681 665.80273 968.35156 C 666.25033 969.73503 666.47461 971.62858 666.47461 974.0293 C 666.47461 975.98242 666.33171 978.17969 666.04688 980.62109 C 665.80273 983.02181 665.39583 985.46322 664.82617 987.94531 C 664.25651 990.42741 663.52409 992.847 662.62891 995.20703 C 661.73372 997.56706 660.63606 999.68295 659.33398 1001.5547 C 658.0319 1003.3858 656.52539 1004.8724 654.81641 1006.0117 C 653.10742 1007.1103 651.1543 1007.6582 648.95703 1007.6582 C 647.53288 1007.6582 646.43522 1007.3545 645.66211 1006.7441 C 644.92969 1006.1338 644.44141 1005.4827 644.19727 1004.791 L 651.58203 969.81641 C 652.76204 967.7819 654.12565 966.25749 655.67188 965.24023 C 657.25879 964.18229 658.76335 963.65234 660.1875 963.65234 z "
         style="font-style:normal;font-variant:normal;font-weight:normal;font-stretch:normal;font-size:125px;font-family:Lobster;-inkscape-font-specification:Lobster;fill:#444444;fill-opacity:1"
         id="path4158"
         d="m 507.35547,923.36914 c -4.02832,0 -7.75,0.58952 -11.16797,1.76953 -3.41797,1.13933 -6.38932,2.72721 -8.91211,4.76172 -2.48209,2.0345 -4.43522,4.45605 -5.85937,7.26367 -1.38347,2.76693 -2.07422,5.79785 -2.07422,9.09375 0,2.44141 0.36523,4.75977 1.09765,6.95703 0.77312,2.19726 1.79134,4.33496 3.05274,6.41016 1.26139,2.03451 2.68457,4.02735 4.27148,5.98047 1.58692,1.95313 3.21451,3.90625 4.88281,5.85937 1.6683,1.91244 3.2959,3.82585 4.88282,5.73828 1.58691,1.91244 3.01204,3.86556 4.27343,5.85938 1.2614,1.95313 2.25782,3.98764 2.99024,6.10352 0.77311,2.0752 1.16015,4.25065 1.16015,6.52929 10e-6,2.23796 -0.38704,4.31419 -1.16015,6.22659 -0.77311,1.9124 -1.83106,3.5599 -3.17383,4.9433 -1.34277,1.3835 -2.95052,2.4831 -4.82226,3.2969 -1.87175,0.7731 -3.90625,1.1582 -6.10352,1.1582 -3.62142,0 -6.50944,-1.0579 -8.66602,-3.1738 -2.11588,-2.1565 -3.17382,-5.0644 -3.17382,-8.72658 0,-1.95312 0.32552,-3.70378 0.97656,-5.25 0.69173,-1.58692 1.64649,-2.92872 2.86719,-4.02734 1.2207,-1.09864 2.70735,-1.9541 4.45703,-2.56446 1.74967,-0.61035 3.72265,-0.91601 5.91992,-0.91601 -0.48828,-2.56347 -1.72884,-4.57617 -3.72266,-6.04102 -1.99382,-1.46484 -4.45703,-2.19726 -7.38672,-2.19726 -2.40071,0 -4.65755,0.50814 -6.77343,1.52539 -2.11589,1.01725 -3.94792,2.42057 -5.49414,4.21094 -1.54623,1.74967 -2.76693,3.82584 -3.66211,6.22656 -0.89519,2.40071 -1.3418,4.98307 -1.3418,7.75 0,3.29588 0.62923,6.28708 1.89062,8.97268 1.2614,2.6855 3.0319,5.0058 5.31055,6.959 2.31934,1.9124 5.08627,3.3772 8.30078,4.3945 3.25522,1.0579 6.87761,1.5859 10.86524,1.5859 4.76074,0 9.17512,-0.7324 13.24414,-2.1972 4.1097,-1.4242 7.67057,-3.3972 10.68164,-5.92 3.05176,-2.5634 5.43164,-5.5745 7.14062,-9.0332 1.70898,-3.49932 2.5625,-7.30433 2.5625,-11.41402 0,-3.86557 -0.6709,-7.38477 -2.01367,-10.5586 -1.34277,-3.21452 -3.0319,-6.18587 -5.0664,-8.91211 -2.0345,-2.76692 -4.23178,-5.34928 -6.5918,-7.75 -2.36003,-2.4414 -4.55729,-4.8431 -6.5918,-7.20312 -2.03451,-2.36003 -3.72168,-4.75977 -5.06445,-7.20117 -1.34278,-2.44141 -2.01563,-5.04558 -2.01563,-7.8125 0,-1.83106 0.26595,-3.52018 0.79492,-5.06641 0.56967,-1.54622 1.3418,-2.86816 2.31836,-3.9668 1.01725,-1.13932 2.2181,-2.01464 3.60157,-2.625 1.42415,-0.65104 2.97038,-0.97656 4.63867,-0.97656 2.76693,0 4.94434,0.79395 6.53125,2.38086 1.58691,1.54622 2.37891,3.66211 2.37891,6.34765 0,2.15659 -0.46648,4.19109 -1.40235,6.10352 -0.93587,1.87175 -2.17838,3.37631 -3.72461,4.51563 0.93588,1.26139 2.03548,2.23795 3.29688,2.92968 1.30208,0.65104 2.74706,0.97657 4.33398,0.97657 1.38346,0 2.66374,-0.28386 3.84375,-0.85352 1.18001,-0.56966 2.17839,-1.36361 2.99219,-2.38086 0.81381,-1.05795 1.44304,-2.2985 1.89062,-3.72266 0.48828,-1.46484 0.73243,-3.07258 0.73243,-4.82226 0,-2.64485 -0.528,-5.04655 -1.58594,-7.20313 -1.05794,-2.15658 -2.56445,-3.98665 -4.51758,-5.49218 -1.91243,-1.54622 -4.23079,-2.72721 -6.95703,-3.54102 -2.72623,-0.85449 -5.77897,-1.28125 -9.15625,-1.28125 z m -256.71289,0.67188 c -4.1097,0 -7.87305,0.63118 -11.29102,1.89257 -3.41797,1.22071 -6.53223,2.90788 -9.33984,5.06446 -2.80762,2.15657 -5.33041,4.70117 -7.56836,7.63086 -2.23795,2.92969 -4.21094,6.08171 -5.91992,9.45898 -1.70899,3.33659 -3.17383,6.81609 -4.39453,10.4375 -1.18002,3.62142 -2.15658,7.222 -2.92969,10.80273 -0.77311,3.58073 -1.34278,7.06022 -1.70899,10.4375 -0.32552,3.33659 -0.48828,6.42904 -0.48828,9.27735 0,5.61523 0.54981,10.37698 1.64844,14.28323 1.13933,3.9062 2.82845,7.0801 5.06641,9.5215 2.27864,2.4414 5.12695,4.2099 8.54492,5.3085 3.41797,1.0986 7.44532,1.6485 12.08398,1.6485 2.889,0 6.04297,-0.4268 9.46094,-1.2813 3.45866,-0.8544 6.83496,-2.1982 10.13086,-4.0293 3.33659,-1.8717 6.42904,-4.2714 9.27734,-7.2011 0.90851,-0.9475 1.65491,-2.0632 2.44336,-3.1348 0.24874,1.2666 0.54131,2.4879 0.97461,3.5625 0.97657,2.4821 2.34017,4.5166 4.08985,6.1035 1.79036,1.5462 3.90625,2.6855 6.34765,3.418 2.4821,0.6917 5.16765,1.0371 8.05664,1.0371 3.82488,0 7.44727,-0.8753 10.86524,-2.625 3.41797,-1.7497 6.44889,-4.2526 9.09375,-7.5078 2.64486,-3.2552 4.82227,-7.2012 6.53125,-11.83986 1.74967,-4.63867 2.86718,-9.84701 3.35547,-15.625 3.32387,-0.55888 6.38895,-1.47788 9.33007,-2.56836 -0.19087,0.48435 -0.48418,0.91738 -0.66211,1.4082 -1.18001,3.25521 -2.05533,6.51042 -2.625,9.76563 -0.56966,3.25521 -0.85351,6.30794 -0.85351,9.15625 0,3.70274 0.46647,6.83494 1.40234,9.39844 0.93588,2.5635 2.17839,4.6397 3.72461,6.2266 1.54622,1.5869 3.31478,2.7262 5.3086,3.4179 1.99381,0.6918 4.06999,1.0371 6.22656,1.0371 2.19727,0 4.23177,-0.3255 6.10351,-0.9765 1.87174,-0.6918 3.56087,-1.5671 5.06641,-2.625 1.54622,-1.0986 2.90788,-2.3193 4.08789,-3.6621 1.22071,-1.3835 2.30046,-2.7868 3.23633,-4.211 0.48829,3.54 1.79037,6.2256 3.90625,8.0567 2.11589,1.7904 4.90267,2.6855 8.36133,2.6855 1.09863,0 2.31933,-0.081 3.66211,-0.2441 1.34277,-0.1628 2.74609,-0.5081 4.21093,-1.0371 1.46484,-0.529 2.97136,-1.2832 4.51758,-2.2598 1.54622,-1.0172 3.05078,-2.3391 4.51563,-3.9668 0.83245,-0.9224 1.60135,-2.2494 2.39648,-3.4082 0.0907,0.2864 0.12674,0.6319 0.22852,0.9062 0.93587,2.4822 2.23795,4.5167 3.90625,6.1036 1.70898,1.5869 3.74349,2.7659 6.10351,3.539 2.40072,0.7324 5.06641,1.0996 7.9961,1.0996 2.52278,0 4.94238,-0.2858 7.26172,-0.8554 2.31934,-0.5697 4.43522,-1.5661 6.34765,-2.9903 1.91244,-1.4242 3.56185,-3.3157 4.94531,-5.6757 1.38346,-2.36 2.39974,-5.3512 3.05079,-8.9727 -0.97657,0.8952 -2.07423,1.7507 -3.29493,2.5645 -1.2207,0.7731 -2.48307,1.4638 -3.78515,2.0742 -1.2614,0.6103 -2.56348,1.0985 -3.90625,1.4648 -1.30209,0.3662 -2.56251,0.5488 -3.78321,0.5488 -1.09863,0 -2.11686,-0.1627 -3.05273,-0.4882 -0.93587,-0.3256 -1.74967,-0.8734 -2.44141,-1.6465 -0.69172,-0.8138 -1.24153,-1.8936 -1.64843,-3.2364 -0.40691,-1.34274 -0.60938,-3.01005 -0.60938,-5.00386 0,-0.56967 0.0199,-1.15918 0.0606,-1.76953 0.0814,-0.65105 0.16276,-1.3239 0.24414,-2.01563 3.74349,-0.24414 7.34407,-1.0778 10.80273,-2.50195 3.45866,-1.42416 6.51139,-3.2959 9.15625,-5.61523 2.68555,-2.31934 4.82129,-5.02474 6.40821,-8.11719 1.58691,-3.13314 2.38086,-6.51139 2.38086,-10.13281 0,-1.54623 -0.20443,-3.03093 -0.61133,-4.45508 -0.36622,-1.46484 -1.07683,-2.74707 -2.13477,-3.8457 -1.01725,-1.09864 -2.42252,-1.97201 -4.21289,-2.62305 -1.74967,-0.69173 -4.02832,-1.03906 -6.83594,-1.03906 -4.27246,0 -8.07552,0.77409 -11.41211,2.32031 -3.33658,1.50554 -6.24641,3.52018 -8.72851,6.04297 -2.48209,2.48209 -4.59798,5.30859 -6.34766,8.48242 -1.74968,3.17383 -3.15299,6.40918 -4.21094,9.70508 -1.05793,3.2959 -1.83202,6.51139 -2.32031,9.64453 -0.48828,3.13313 -0.73242,5.90006 -0.73242,8.30078 0,0.35079 0.0611,0.63576 0.0703,0.97656 -0.0263,0.0568 -0.0437,0.12517 -0.0703,0.18164 -0.65104,1.3428 -1.40332,2.5039 -2.25781,3.4805 -0.8138,0.9766 -1.75065,1.7487 -2.8086,2.3183 -1.01725,0.529 -2.13476,0.793 -3.35546,0.793 -1.74968,0 -3.05176,-0.3256 -3.90625,-0.9766 -0.8138,-0.6917 -1.22071,-1.9124 -1.22071,-3.6621 0,-0.651 0.0397,-1.3021 0.1211,-1.9531 0.0814,-0.69173 0.22428,-1.38248 0.42773,-2.07422 l 14.34375,-67.50586 -18.49414,2.50391 -6.10352,28.74609 0,-0.48828 c 0,-1.79036 -0.8138,-3.29491 -2.4414,-4.51562 -1.58692,-1.2207 -4.15137,-1.83203 -7.69141,-1.83203 -3.62142,0 -6.9362,0.6927 -9.94726,2.07617 -3.01107,1.34277 -5.71842,3.17285 -8.11914,5.49219 -2.36002,2.27864 -4.43425,4.92448 -6.22461,7.93554 -0.28871,0.49013 -0.45142,1.04314 -0.72461,1.54102 -0.25095,0.10674 -0.48751,0.24927 -0.74024,0.35156 -1.70898,0.69174 -3.41796,1.2614 -5.12695,1.70899 -1.66829,0.4069 -3.23438,0.60937 -4.69922,0.60937 l -0.79492,0 c -0.16276,0 -0.34538,-0.0397 -0.54883,-0.12109 l 0,-0.12305 c 0,-13.30566 -5.35124,-19.95898 -16.05273,-19.95898 -4.27247,0 -8.07553,0.77409 -11.41211,2.32031 -3.33659,1.50554 -6.28809,3.49837 -8.85157,5.98047 -2.52278,2.48209 -4.67839,5.31054 -6.46875,8.48437 -1.74967,3.13314 -3.19465,6.34863 -4.33398,9.64453 -1.09863,3.2959 -1.89258,6.50944 -2.38086,9.64258 -0.44956,2.62821 -0.60634,4.89672 -0.67383,7.05469 -2.55722,2.90454 -5.40975,5.39634 -8.78515,7.16604 -4.19108,2.1972 -8.74838,3.2968 -13.67188,3.2968 -3.05176,0 -5.55468,-0.4684 -7.50781,-1.4042 -1.91243,-0.9766 -3.4388,-2.3184 -4.57813,-4.0274 -1.09862,-1.709 -1.87076,-3.74348 -2.31836,-6.10351 -0.4069,-2.40071 -0.61132,-5.04654 -0.61132,-7.93554 0,-4.23178 0.32552,-8.62631 0.97656,-13.1836 0.65104,-4.55729 1.54622,-8.99153 2.68555,-13.30468 1.13932,-4.31315 2.50293,-8.40398 4.08984,-12.26954 1.62761,-3.86556 3.39811,-7.24185 5.31055,-10.13085 1.95312,-2.92969 4.00749,-5.25 6.16406,-6.95899 2.19727,-1.70898 4.45606,-2.5625 6.77539,-2.5625 1.38347,0 2.5625,0.22429 3.53906,0.67188 0.97657,0.4069 1.77051,0.95475 2.38086,1.64648 0.61035,0.69173 1.03711,1.50553 1.28125,2.44141 0.28483,0.93587 0.42774,1.89258 0.42774,2.86914 0,1.2207 -0.16277,2.44141 -0.48829,3.66211 -0.32552,1.2207 -0.75227,2.36003 -1.28125,3.41797 -0.52897,1.01725 -1.14029,1.93229 -1.83203,2.74609 -0.69172,0.77311 -1.40429,1.34277 -2.13672,1.70898 1.18002,1.42416 2.40072,2.31934 3.66211,2.68555 1.30209,0.36621 2.44141,0.55078 3.41797,0.55078 1.58692,0 2.93067,-0.28581 4.0293,-0.85547 1.13933,-0.56966 2.05437,-1.36361 2.74609,-2.38086 0.73243,-1.05794 1.24057,-2.27865 1.52539,-3.66211 0.32552,-1.42415 0.48828,-2.97037 0.48828,-4.63867 10e-6,-2.97037 -0.54785,-5.51302 -1.64648,-7.6289 -1.05795,-2.11589 -2.5446,-3.84473 -4.45703,-5.1875 -1.87175,-1.34278 -4.08887,-2.31934 -6.65234,-2.92969 -2.52279,-0.65104 -5.22819,-0.97656 -8.11719,-0.97656 z m -195.617189,0.12109 c -7.73112,0 -14.384441,0.91699 -19.958985,2.74805 -5.533854,1.83106 -10.091145,4.25065 -13.671875,7.26172 -3.540039,3.01106 -6.164063,6.49055 -7.873047,10.4375 -1.668294,3.90624 -2.503906,7.93554 -2.503906,12.08593 0,2.23796 0.285807,4.12956 0.855469,5.67578 0.610351,1.54623 1.463867,2.78679 2.5625,3.72266 1.139323,0.93587 2.544596,1.62858 4.212891,2.07617 1.668294,0.4069 3.579752,0.60938 5.736328,0.60938 0,-0.24414 -0.101237,-0.528 -0.304688,-0.85352 -0.162761,-0.32552 -0.345377,-0.77409 -0.548828,-1.34375 -0.20345,-0.61035 -0.407877,-1.40429 -0.611328,-2.38086 -0.162761,-1.01724 -0.244141,-2.31933 -0.244141,-3.90625 0,-4.9235 0.651042,-8.99251 1.953125,-12.20703 1.302084,-3.25521 3.072591,-5.83757 5.310547,-7.75 2.278646,-1.91243 4.944337,-3.27604 7.996094,-4.08984 3.051758,-0.8138 6.326822,-1.30209 9.826172,-1.46485 l -17.822266,83.0078 17.943359,0 17.640626,-81.84764 c 2.929687,0.44759 5.777994,0.85449 8.544921,1.2207 2.766927,0.36622 5.430664,0.65007 7.994141,0.85352 l -17.150391,79.77342 18.00586,0 c 1.505533,-8.3415 2.888997,-15.8483 4.15039,-22.52147 1.261394,-6.67318 2.420573,-12.79851 3.478516,-18.37305 0.488281,-1.46484 1.038086,-2.84831 1.648437,-4.15039 0.651042,-1.30208 1.363607,-2.44141 2.136719,-3.41797 0.813802,-0.97656 1.687175,-1.74869 2.623047,-2.31835 0.935873,-0.56966 1.954099,-0.85547 3.052732,-0.85547 3.01107,0 4.51563,2.13769 4.51563,6.41015 0,1.99382 -0.30371,4.3737 -0.91406,7.14063 -0.56966,2.76692 -1.20085,5.63509 -1.89258,8.60547 -0.69174,2.97038 -1.34278,5.88021 -1.953128,8.72851 -0.569662,2.80759 -0.855469,5.26884 -0.855469,7.38474 0,1.7904 0.244141,3.541 0.732422,5.25 0.528975,1.6683 1.364575,3.1729 2.503905,4.5157 1.18001,1.302 2.70443,2.36 4.57617,3.1738 1.87175,0.7731 4.19206,1.1601 6.95899,1.1601 1.6276,0 3.41797,-0.2441 5.37109,-0.7324 1.99382,-0.4883 4.00847,-1.5264 6.04297,-3.1133 2.06722,-1.6213 4.11379,-3.9536 6.14063,-6.9882 0.0102,0.028 0.0131,0.064 0.0234,0.092 0.93587,2.4822 2.23795,4.5167 3.90625,6.1036 1.70898,1.5869 3.74349,2.7659 6.10352,3.539 2.40072,0.7324 5.06641,1.0996 7.99609,1.0996 2.52279,0 4.94239,-0.2858 7.26172,-0.8554 2.31933,-0.5697 4.43522,-1.5661 6.34766,-2.9903 1.91243,-1.4242 3.56185,-3.3157 4.94531,-5.6757 1.38347,-2.36 2.39974,-5.3512 3.05078,-8.9727 -0.97656,0.8952 -2.07421,1.7506 -3.29492,2.5645 -1.2207,0.7731 -2.48307,1.4638 -3.78516,2.0742 -1.26139,0.6103 -2.56347,1.0985 -3.90625,1.4648 -1.30208,0.3662 -2.56249,0.5488 -3.7832,0.5488 -1.09863,0 -2.11687,-0.1627 -3.05273,-0.4882 -0.93588,-0.3256 -1.74968,-0.8734 -2.44141,-1.6465 -0.69173,-0.8138 -1.24154,-1.8936 -1.64844,-3.2364 -0.4069,-1.34274 -0.60937,-3.01005 -0.60937,-5.00386 0,-0.56967 0.0199,-1.15918 0.0605,-1.76953 0.0814,-0.65105 0.16276,-1.3239 0.24414,-2.01563 3.7435,-0.24414 7.34408,-1.0778 10.80274,-2.50195 3.45866,-1.42416 6.51139,-3.2959 9.15625,-5.61523 2.68554,-2.31934 4.82129,-5.02474 6.4082,-8.11719 1.58691,-3.13314 2.38086,-6.51139 2.38086,-10.13281 0,-1.54623 -0.20443,-3.03093 -0.61133,-4.45508 -0.3662,-1.46484 -1.07682,-2.74707 -2.13476,-3.8457 -1.01726,-1.09864 -2.42253,-1.97201 -4.21289,-2.62305 -1.74968,-0.69173 -4.02833,-1.03906 -6.83594,-1.03906 -4.27246,0 -8.07552,0.77409 -11.41211,2.32031 -3.33659,1.50554 -6.24642,3.52018 -8.72852,6.04297 -2.4821,2.48209 -4.59798,5.30859 -6.34765,8.48242 -1.74968,3.17383 -3.15299,6.40918 -4.21094,9.70508 -1.05794,3.2959 -1.83203,6.51139 -2.32031,9.64453 -0.48828,3.13313 -0.73242,5.90006 -0.73242,8.30078 0,0.25043 0.0441,0.45193 0.0488,0.69727 -0.0795,0.16344 -0.15233,0.36326 -0.23242,0.52343 -0.65104,1.3428 -1.38346,2.5019 -2.19726,3.4785 -0.81381,0.9766 -1.72884,1.7288 -2.7461,2.2578 -1.01725,0.529 -2.19629,0.793 -3.53906,0.793 -1.95312,0 -3.27702,-0.4883 -3.96875,-1.4648 -0.69173,-0.9766 -1.03711,-2.237 -1.03711,-3.7832 0,-1.1801 0.1429,-2.54366 0.42774,-4.08989 0.32551,-1.58691 0.69075,-3.2959 1.09765,-5.12695 0.44759,-1.83106 0.93588,-3.74252 1.46485,-5.73633 0.52897,-1.99382 0.99739,-3.98861 1.40429,-5.98242 0.4476,-2.03451 0.81478,-4.00749 1.09961,-5.91993 0.32552,-1.95312 0.48828,-3.76334 0.48828,-5.43164 0,-2.48209 -0.34733,-4.61979 -1.03906,-6.41015 -0.69173,-1.79037 -1.66829,-3.25521 -2.92969,-4.39453 -1.2207,-1.13933 -2.68554,-1.97299 -4.39453,-2.50196 -1.66829,-0.52897 -3.49837,-0.79297 -5.49219,-0.79297 -1.01725,0 -2.11686,0.10124 -3.29687,0.30469 -1.13933,0.16276 -2.36003,0.50814 -3.66211,1.03711 -1.26139,0.48829 -2.563477,1.22071 -3.906251,2.19727 -1.342773,0.93587 -2.684569,2.17839 -4.027343,3.72461 0.935872,-4.76074 1.769531,-8.87142 2.501953,-12.33008 0.773112,-3.45866 1.46582,-6.42806 2.076172,-8.91016 0.651042,-2.4821 1.220703,-4.55827 1.708984,-6.22656 0.488285,-1.66829 0.954755,-3.09147 1.402345,-4.27149 0.48828,-1.22069 0.9567,-2.27864 1.4043,-3.17382 0.44758,-0.89518 0.91601,-1.81218 1.40429,-2.74805 -1.74968,1.18001 -3.94694,1.97396 -6.591794,2.38086 -2.644857,0.40691 -5.493165,0.61133 -8.544922,0.61133 -3.173829,0 -6.448893,-0.16276 -9.826172,-0.48828 -3.377279,-0.36621 -6.612631,-0.7334 -9.705078,-1.09961 -3.051758,-0.4069 -5.838542,-0.77214 -8.361328,-1.09766 -2.522787,-0.36621 -4.475912,-0.55078 -5.859375,-0.55078 z m 560.607419,4.51758 c -1.38346,0 -2.68555,0.26399 -3.90625,0.79297 -1.18001,0.52897 -2.21809,1.26139 -3.11328,2.19726 -0.89518,0.89518 -1.60774,1.95313 -2.13672,3.17383 -0.48828,1.18001 -0.73242,2.46224 -0.73242,3.8457 0,1.38346 0.24414,2.68555 0.73242,3.90625 0.52898,1.18002 1.24154,2.2181 2.13672,3.11328 0.89519,0.8545 1.93327,1.54525 3.11328,2.07422 1.2207,0.48828 2.52279,0.73242 3.90625,0.73242 1.38346,0 2.66569,-0.24414 3.84571,-0.73242 1.2207,-0.52897 2.27864,-1.21972 3.17382,-2.07422 0.93588,-0.89518 1.6683,-1.93326 2.19727,-3.11328 0.52897,-1.2207 0.79297,-2.52279 0.79297,-3.90625 0,-1.38346 -0.264,-2.66569 -0.79297,-3.8457 -0.52897,-1.2207 -1.26139,-2.27865 -2.19727,-3.17383 -0.89518,-0.93587 -1.95312,-1.66829 -3.17382,-2.19726 -1.18002,-0.52898 -2.46225,-0.79297 -3.84571,-0.79297 z m -52.00195,1.58593 -18.49414,2.50391 -18.12695,85.02147 18.00585,0 8.48243,-40.09959 c 0.48828,-1.58692 1.05794,-3.07357 1.70898,-4.45703 0.65104,-1.42416 1.38346,-2.64486 2.19727,-3.66211 0.8138,-1.05795 1.70898,-1.89161 2.68554,-2.50196 0.97657,-0.61035 2.03451,-0.91601 3.17383,-0.91601 3.01107,0 4.51758,2.13769 4.51758,6.41015 0,1.99382 -0.30567,4.3737 -0.91602,7.14063 -0.56966,2.76692 -1.20085,5.63509 -1.89257,8.60547 -0.69174,2.97038 -1.34278,5.88021 -1.95313,8.72851 -0.56966,2.80759 -0.85351,5.26884 -0.85351,7.38474 0,1.7904 0.24414,3.541 0.73242,5.25 0.52897,1.6683 1.36263,3.1729 2.50195,4.5157 1.13933,1.302 2.64584,2.36 4.51758,3.1738 1.87175,0.7731 4.1901,1.1601 6.95703,1.1601 1.66829,0 3.47851,-0.2441 5.43164,-0.7324 1.99381,-0.4883 4.00846,-1.5264 6.04297,-3.1133 1.99604,-1.5655 3.95229,-3.8278 5.87305,-6.7109 0.16357,0.8319 0.33226,1.6588 0.59765,2.377 0.69173,1.8717 1.62663,3.4179 2.80664,4.6386 1.22071,1.2207 2.64583,2.1159 4.27344,2.6856 1.6276,0.5696 3.3763,0.8554 5.24805,0.8554 1.09863,0 2.33919,-0.1012 3.72265,-0.3046 1.42416,-0.2035 2.91081,-0.5905 4.45703,-1.1602 1.54623,-0.5696 3.13217,-1.3834 4.75977,-2.4414 1.66829,-1.0579 3.27604,-2.4415 4.82227,-4.1504 0.0631,-0.068 0.11682,-0.1808 0.17968,-0.25 l -8.23632,38.8242 18.85937,-4.5176 6.4707,-30.455 c 0.36621,0.5696 0.81283,1.1393 1.3418,1.7089 0.56966,0.529 1.26237,0.9955 2.07617,1.4024 0.8545,0.4069 1.87078,0.7324 3.05078,0.9765 1.18002,0.2442 2.56347,0.3672 4.15039,0.3672 4.02832,0 7.5892,-0.6927 10.68165,-2.0761 3.13313,-1.4242 5.83854,-3.2959 8.11718,-5.6153 2.27865,-2.3193 4.17025,-4.983 5.67578,-7.9941 1.54623,-3.0518 2.78874,-6.20574 3.72461,-9.46095 0.93588,-3.2959 1.58692,-6.57096 1.95313,-9.82617 0.4069,-3.2959 0.60937,-6.34864 0.60937,-9.15625 0,-3.7028 -0.4069,-6.8151 -1.2207,-9.33789 -0.77311,-2.52279 -1.85091,-4.53743 -3.23437,-6.04297 -1.34278,-1.54622 -2.95052,-2.64388 -4.82227,-3.29492 -1.87175,-0.69173 -3.86459,-1.03906 -5.98047,-1.03906 -3.17383,0 -5.94075,0.51009 -8.30078,1.52734 -2.36003,1.01725 -4.45606,2.29753 -6.28711,3.84375 l 2.01367,-9.39844 -18.00586,0 -9.49023,44.73828 -0.0918,0 c -0.48828,1.58692 -1.11946,3.07162 -1.89258,4.45508 -0.77311,1.3428 -1.64648,2.5039 -2.62304,3.4805 -0.97656,0.9766 -2.05632,1.7487 -3.23633,2.3183 -1.13933,0.529 -2.31836,0.793 -3.53906,0.793 -1.74968,0 -3.0319,-0.3256 -3.84571,-0.9766 -0.8138,-0.6917 -1.2207,-1.9124 -1.2207,-3.6621 0,-0.651 0.0199,-1.3021 0.0606,-1.9531 0.0814,-0.69173 0.22428,-1.38248 0.42773,-2.07422 l 8.97266,-42.48046 -18.00586,0 -8.48438,40.0996 c -0.032,0.15586 -0.0419,0.28361 -0.0723,0.4375 -0.59154,1.44859 -1.19364,2.83064 -1.81836,4.08008 -0.65104,1.3428 -1.38347,2.5019 -2.19727,3.4785 -0.8138,0.9766 -1.73079,1.7288 -2.74804,2.2578 -1.01725,0.529 -2.19629,0.793 -3.53907,0.793 -1.91244,0 -3.23437,-0.4883 -3.96679,-1.4648 -0.69174,-0.9766 -1.03907,-2.237 -1.03907,-3.7832 0,-1.1801 0.1429,-2.54366 0.42774,-4.08989 0.32552,-1.58691 0.71256,-3.2959 1.16015,-5.12695 0.44759,-1.83106 0.91601,-3.74252 1.4043,-5.73633 0.52897,-1.99382 1.01725,-3.98861 1.46484,-5.98242 0.4476,-2.03451 0.81283,-4.00749 1.09766,-5.91993 0.32552,-1.95312 0.48828,-3.76334 0.48828,-5.43164 0,-2.48209 -0.34538,-4.61979 -1.03711,-6.41015 -0.69173,-1.79037 -1.66829,-3.25521 -2.92969,-4.39453 -1.2207,-1.13933 -2.68555,-1.97299 -4.39453,-2.50196 -1.70898,-0.52897 -3.56087,-0.79297 -5.55468,-0.79297 -0.97657,0 -2.03451,0.0814 -3.17383,0.24415 -1.09864,0.16275 -2.27767,0.48828 -3.53906,0.97656 -1.2614,0.48828 -2.56348,1.20085 -3.90625,2.13672 -1.30208,0.89518 -2.62597,2.09407 -3.96875,3.59961 l 6.71484,-31.49415 z M 164.64453,960.7832 c 1.18001,0 1.99382,0.46843 2.44141,1.4043 0.44759,0.93587 0.66992,2.17643 0.66992,3.72266 0,2.60416 -0.50814,5.12695 -1.52539,7.56836 -0.97656,2.4414 -2.31836,4.61881 -4.02735,6.53125 -1.66829,1.87174 -3.60156,3.41797 -5.79882,4.63867 -2.19727,1.18001 -4.49577,1.8112 -6.89649,1.89258 0.65104,-2.97038 1.50456,-5.98145 2.5625,-9.03321 1.09864,-3.05176 2.29948,-5.81869 3.60157,-8.30078 1.34277,-2.4821 2.76595,-4.49675 4.27148,-6.04297 1.54622,-1.58691 3.11425,-2.38086 4.70117,-2.38086 z m 255.85938,0 c 1.18001,0 1.99381,0.46843 2.4414,1.4043 0.44759,0.93587 0.66992,2.17643 0.66992,3.72266 0,2.60416 -0.50813,5.12695 -1.52539,7.56836 -0.97656,2.4414 -2.31835,4.61881 -4.02734,6.53125 -1.66829,1.87174 -3.60156,3.41797 -5.79883,4.63867 -2.19726,1.18001 -4.49576,1.8112 -6.89648,1.89258 0.65104,-2.97038 1.50455,-5.98145 2.5625,-9.03321 1.09863,-3.05176 2.29948,-5.81869 3.60156,-8.30078 1.34277,-2.4821 2.76595,-4.49675 4.27148,-6.04297 1.54623,-1.58691 3.11426,-2.38086 4.70118,-2.38086 z m -120.11719,0.97657 c 0.85449,0 1.54524,0.12304 2.07422,0.36718 0.56966,0.24414 1.03808,0.6709 1.40429,1.28125 0.36621,0.56966 0.65007,1.32194 0.85352,2.25782 0.20345,0.89518 0.34635,2.01464 0.42773,3.35742 -1.18001,0.52897 -2.13671,1.36263 -2.86914,2.50195 -0.69172,1.09863 -1.03711,2.52376 -1.03711,4.27344 0,1.26139 0.22429,2.38085 0.67188,3.35742 0.48828,0.93587 1.38346,1.5651 2.68555,1.89063 -0.48828,3.6621 -1.24056,7.08007 -2.25782,10.2539 -0.97656,3.17383 -2.11589,5.9209 -3.41796,8.24024 -1.30209,2.31938 -2.72722,4.15138 -4.27344,5.49418 -1.50554,1.3428 -3.01009,2.0136 -4.51563,2.0136 -1.18001,0 -2.17838,-0.1428 -2.99219,-0.4277 -0.81379,-0.2848 -1.48469,-0.793 -2.01367,-1.5254 -0.48828,-0.7731 -0.85351,-1.8112 -1.09765,-3.1133 -0.20345,-1.3021 -0.30664,-2.99122 -0.30664,-5.06638 0,-2.0752 0.20442,-4.3737 0.61132,-6.89649 0.4069,-2.56348 0.97657,-5.14779 1.70899,-7.75195 0.73242,-2.60417 1.60775,-5.12695 2.625,-7.56836 1.05795,-2.48209 2.19727,-4.67936 3.41797,-6.5918 1.26139,-1.91243 2.58333,-3.43685 3.96679,-4.57617 1.38346,-1.18001 2.82846,-1.77148 4.33399,-1.77148 z m 55.78516,0.67187 c 0.97656,0 1.7705,0.16276 2.38085,0.48828 0.65104,0.28483 1.15918,0.67188 1.52539,1.16016 0.36621,0.44759 0.63021,0.91602 0.79297,1.4043 0.20346,0.48827 0.34636,0.91503 0.42774,1.28124 l -6.10352,28.625 0,0.67188 c -0.4069,1.74967 -1.01628,3.27604 -1.83008,4.5781 -0.77311,1.3021 -1.64844,2.3799 -2.625,3.2344 -0.93587,0.8545 -1.93228,1.5055 -2.99023,1.9531 -1.01725,0.4069 -1.9541,0.6094 -2.80859,0.6094 -0.56966,0 -1.2207,-0.06 -1.95313,-0.1816 -0.73242,-0.1221 -1.42318,-0.4893 -2.07422,-1.0997 -0.61035,-0.651 -1.14029,-1.6276 -1.58789,-2.9296 -0.44758,-1.3021 -0.67187,-3.154 -0.67187,-5.55472 0,-1.95313 0.18457,-4.1504 0.55078,-6.5918 0.36621,-2.4821 0.8942,-4.98307 1.58594,-7.50586 0.73242,-2.56348 1.60774,-5.04655 2.625,-7.44727 1.01725,-2.40072 2.17643,-4.53646 3.47851,-6.4082 1.30209,-1.91244 2.72722,-3.43881 4.27344,-4.57813 1.58691,-1.13932 3.25422,-1.70898 5.00391,-1.70898 z m 304.01562,1.2207 c 0.56966,0 1.22071,0.10124 1.95312,0.30469 0.73243,0.16276 1.40528,0.59147 2.01563,1.2832 0.65105,0.69174 1.1989,1.72787 1.64648,3.11133 0.4476,1.38347 0.67188,3.27702 0.67188,5.67774 0,1.95312 -0.1429,4.15039 -0.42773,6.59179 -0.24415,2.40072 -0.65105,4.84213 -1.22071,7.32422 -0.56966,2.4821 -1.30208,4.90169 -2.19726,7.26172 -0.89519,2.36003 -1.99285,4.47592 -3.29493,6.34767 -1.30208,1.8311 -2.80859,3.3177 -4.51757,4.457 -1.70899,1.0986 -3.66211,1.6465 -5.85938,1.6465 -1.42415,0 -2.52181,-0.3037 -3.29492,-0.9141 -0.73242,-0.6103 -1.2207,-1.2614 -1.46484,-1.9531 l 7.38476,-34.97459 c 1.18001,-2.03451 2.54362,-3.55892 4.08985,-4.57618 1.58691,-1.05794 3.09147,-1.58789 4.51562,-1.58789 z" />
    </g>
  </g>
</svg>
